{"asset":{"version":"2.0","generator":"Blockbench 4.12.6 glTF exporter"},"scenes":[{"nodes":[1],"name":"blockbench_export"}],"scene":0,"nodes":[{"rotation":[0.6532814824381882,0.2705980500730985,0.27059805007309845,0.6532814824381883],"translation":[0,0.234375,-0.1875],"name":"beveled_cuboid","mesh":0},{"children":[0]}],"bufferViews":[{"buffer":0,"byteOffset":0,"byteLength":1536,"target":34962,"byteStride":12},{"buffer":0,"byteOffset":1536,"byteLength":1536,"target":34962,"byteStride":12},{"buffer":0,"byteOffset":3072,"byteLength":1024,"target":34962,"byteStride":8},{"buffer":0,"byteOffset":4096,"byteLength":360,"target":34963}],"buffers":[{"byteLength":4456,"uri":"data:application/octet-stream;base64,"}],"accessors":[{"bufferView":0,"componentType":5126,"count":128,"max":[0.1875,0.40625,0.1875],"min":[-0.1875,0.09375,-0.1875],"type":"VEC3"},{"bufferView":1,"componentType":5126,"count":128,"max":[1,1,1],"min":[-1,-1,-1],"type":"VEC3"},{"bufferView":2,"componentType":5126,"count":128,"max":[0.53125,0.570746898651123],"min":[0,0],"type":"VEC2"},{"bufferView":3,"componentType":5123,"count":180,"max":[127],"min":[0],"type":"SCALAR"}],"materials":[{"pbrMetallicRoughness":{"metallicFactor":0,"roughnessFactor":1,"baseColorTexture":{"index":0}},"alphaMode":"MASK","alphaCutoff":0.05,"doubleSided":true}],"textures":[{"sampler":0,"source":0,"name":"texture"}],"samplers":[{"magFilter":9728,"minFilter":9728,"wrapS":33071,"wrapT":33071}],"images":[{"mimeType":"image/png","uri":"data:image/png;base64,"}],"meshes":[{"primitives":[{"mode":4,"attributes":{"POSITION":0,"NORMAL":1,"TEXCOORD_0":2},"indices":3,"material":0}]}]}