{"asset":{"version":"2.0","generator":"Blockbench 4.12.6 glTF exporter"},"scenes":[{"nodes":[7],"name":"blockbench_export"}],"scene":0,"nodes":[{"translation":[-0.0625,0.875,0],"name":"cylinder","mesh":0},{"rotation":[0,0.3826834323650898,0,0.9238795325112867],"translation":[-0.484375,1,0],"name":"cube","mesh":1},{"translation":[0,0,0.4375],"name":"cube","mesh":2},{"translation":[0,0.1875,0],"name":"cylinder","mesh":3},{"translation":[0,0.5,0],"name":"cube","mesh":4},{"translation":[0.375,0.875,0],"name":"cuboid","mesh":5},{"translation":[0.75,1.125,0],"name":"cube","mesh":6},{"children":[0,1,2,3,4,5,6]}],"bufferViews":[{"buffer":0,"byteOffset":0,"byteLength":17856,"target":34962,"byteStride":12},{"buffer":0,"byteOffset":17856,"byteLength":17856,"target":34962,"byteStride":12},{"buffer":0,"byteOffset":35712,"byteLength":11904,"target":34962,"byteStride":8},{"buffer":0,"byteOffset":47616,"byteLength":4320,"target":34963},{"buffer":0,"byteOffset":51936,"byteLength":288,"target":34962,"byteStride":12},{"buffer":0,"byteOffset":52224,"byteLength":288,"target":34962,"byteStride":12},{"buffer":0,"byteOffset":52512,"byteLength":192,"target":34962,"byteStride":8},{"buffer":0,"byteOffset":52704,"byteLength":72,"target":34963},{"buffer":0,"byteOffset":52776,"byteLength":288,"target":34962,"byteStride":12},{"buffer":0,"byteOffset":53064,"byteLength":288,"target":34962,"byteStride":12},{"buffer":0,"byteOffset":53352,"byteLength":192,"target":34962,"byteStride":8},{"buffer":0,"byteOffset":53544,"byteLength":72,"target":34963},{"buffer":0,"byteOffset":53616,"byteLength":2880,"target":34962,"byteStride":12},{"buffer":0,"byteOffset":56496,"byteLength":2880,"target":34962,"byteStride":12},{"buffer":0,"byteOffset":59376,"byteLength":1920,"target":34962,"byteStride":8},{"buffer":0,"byteOffset":61296,"byteLength":576,"target":34963},{"buffer":0,"byteOffset":61872,"byteLength":288,"target":34962,"byteStride":12},{"buffer":0,"byteOffset":62160,"byteLength":288,"target":34962,"byteStride":12},{"buffer":0,"byteOffset":62448,"byteLength":192,"target":34962,"byteStride":8},{"buffer":0,"byteOffset":62640,"byteLength":72,"target":34963},{"buffer":0,"byteOffset":62712,"byteLength":7680,"target":34962,"byteStride":12},{"buffer":0,"byteOffset":70392,"byteLength":7680,"target":34962,"byteStride":12},{"buffer":0,"byteOffset":78072,"byteLength":5120,"target":34962,"byteStride":8},{"buffer":0,"byteOffset":83192,"byteLength":1920,"target":34963},{"buffer":0,"byteOffset":85112,"byteLength":288,"target":34962,"byteStride":12},{"buffer":0,"byteOffset":85400,"byteLength":288,"target":34962,"byteStride":12},{"buffer":0,"byteOffset":85688,"byteLength":192,"target":34962,"byteStride":8},{"buffer":0,"byteOffset":85880,"byteLength":72,"target":34963}],"buffers":[{"byteLength":85952,"uri":"data:application/octet-stream;base64,"}],"accessors":[{"bufferView":0,"componentType":5126,"count":1488,"max":[0.5773502588272095,1,0.5],"min":[-0.5773502588272095,-0.25,-0.5],"type":"VEC3"},{"bufferView":1,"componentType":5126,"count":1488,"max":[1,1,1],"min":[-1,-1,-1],"type":"VEC3"},{"bufferView":2,"componentType":5126,"count":1488,"max":[0.890625,0.890625],"min":[0,0],"type":"VEC2"},{"bufferView":3,"componentType":5123,"count":2160,"max":[1487],"min":[0],"type":"SCALAR"},{"bufferView":4,"componentType":5126,"count":24,"max":[0.0625,0.125,0.0625],"min":[-0.0625,0,-0.0625],"type":"VEC3"},{"bufferView":5,"componentType":5126,"count":24,"max":[1,1,1],"min":[-1,-1,-1],"type":"VEC3"},{"bufferView":6,"componentType":5126,"count":24,"max":[0.03125,0.03125],"min":[0,0],"type":"VEC2"},{"bufferView":7,"componentType":5123,"count":36,"max":[23],"min":[0],"type":"SCALAR"},{"bufferView":8,"componentType":5126,"count":24,"max":[0.875,0.375,0.0625],"min":[-0.5,0,-0.9375],"type":"VEC3"},{"bufferView":9,"componentType":5126,"count":24,"max":[1,1,1],"min":[-1,-1,-1],"type":"VEC3"},{"bufferView":10,"componentType":5126,"count":24,"max":[0.6875,0.5],"min":[0,0],"type":"VEC2"},{"bufferView":11,"componentType":5123,"count":36,"max":[23],"min":[0],"type":"SCALAR"},{"bufferView":12,"componentType":5126,"count":240,"max":[0.5,0.3125,0.5],"min":[-0.5,0.1875,-0.5],"type":"VEC3"},{"bufferView":13,"componentType":5126,"count":240,"max":[1,1,1],"min":[-1,-1,-1],"type":"VEC3"},{"bufferView":14,"componentType":5126,"count":240,"max":[0.931850016117096,0.9375],"min":[0,0],"type":"VEC2"},{"bufferView":15,"componentType":5123,"count":288,"max":[239],"min":[0],"type":"SCALAR"},{"bufferView":16,"componentType":5126,"count":24,"max":[0.5,0.125,0.5],"min":[-0.5,0,-0.5],"type":"VEC3"},{"bufferView":17,"componentType":5126,"count":24,"max":[1,1,1],"min":[-1,-1,-1],"type":"VEC3"},{"bufferView":18,"componentType":5126,"count":24,"max":[0.25,0.25],"min":[0,0],"type":"VEC2"},{"bufferView":19,"componentType":5123,"count":36,"max":[23],"min":[0],"type":"SCALAR"},{"bufferView":20,"componentType":5126,"count":640,"max":[0.375,0.6875,0.4375],"min":[-0.25,-0.1875,-0.4375],"type":"VEC3"},{"bufferView":21,"componentType":5126,"count":640,"max":[1,1,1],"min":[-1,-1,-1],"type":"VEC3"},{"bufferView":22,"componentType":5126,"count":640,"max":[0.5625,0.640625],"min":[0,0],"type":"VEC2"},{"bufferView":23,"componentType":5123,"count":960,"max":[639],"min":[0],"type":"SCALAR"},{"bufferView":24,"componentType":5126,"count":24,"max":[0.015625,0.328125,0.328125],"min":[-0.0625,-0.328125,-0.328125],"type":"VEC3"},{"bufferView":25,"componentType":5126,"count":24,"max":[1,1,1],"min":[-1,-1,-1],"type":"VEC3"},{"bufferView":26,"componentType":5126,"count":24,"max":[0.40625,0.6875],"min":[0,0],"type":"VEC2"},{"bufferView":27,"componentType":5123,"count":36,"max":[23],"min":[0],"type":"SCALAR"}],"materials":[{"pbrMetallicRoughness":{"metallicFactor":0,"roughnessFactor":1,"baseColorTexture":{"index":0}},"alphaMode":"MASK","alphaCutoff":0.05,"doubleSided":true},{"pbrMetallicRoughness":{"metallicFactor":0,"roughnessFactor":1},"alphaMode":"MASK","alphaCutoff":0.05,"doubleSided":true},{"pbrMetallicRoughness":{"metallicFactor":0,"roughnessFactor":1,"baseColorTexture":{"index":1}},"alphaMode":"MASK","alphaCutoff":0.05,"doubleSided":true},{"pbrMetallicRoughness":{"metallicFactor":0,"roughnessFactor":1,"baseColorTexture":{"index":2}},"alphaMode":"MASK","alphaCutoff":0.05,"doubleSided":true},{"pbrMetallicRoughness":{"metallicFactor":0,"roughnessFactor":1,"baseColorTexture":{"index":3}},"alphaMode":"MASK","alphaCutoff":0.05,"doubleSided":true},{"pbrMetallicRoughness":{"metallicFactor":0,"roughnessFactor":1,"baseColorTexture":{"index":4}},"alphaMode":"MASK","alphaCutoff":0.05,"doubleSided":true}],"textures":[{"sampler":0,"source":0,"name":"blank2"},{"sampler":1,"source":1,"name":"blank4"},{"sampler":2,"source":2,"name":"blank3"},{"sampler":3,"source":3,"name":"blank"},{"sampler":4,"source":4,"name":"screen"}],"samplers":[{"magFilter":9728,"minFilter":9728,"wrapS":33071,"wrapT":33071},{"magFilter":9728,"minFilter":9728,"wrapS":33071,"wrapT":33071},{"magFilter":9728,"minFilter":9728,"wrapS":33071,"wrapT":33071},{"magFilter":9728,"minFilter":9728,"wrapS":33071,"wrapT":33071},{"magFilter":9728,"minFilter":9728,"wrapS":33071,"wrapT":33071}],"images":[{"mimeType":"image/png","uri":"data:image/png;base64,"},{"mimeType":"image/png","uri":"data:image/png;base64,"},{"mimeType":"image/png","uri":"data:image/png;base64,"},{"mimeType":"image/png","uri":"data:image/png;base64,"},{"mimeType":"image/png","uri":"data:image/png;base64,"}],"meshes":[{"primitives":[{"mode":4,"attributes":{"POSITION":0,"NORMAL":1,"TEXCOORD_0":2},"indices":3,"material":0}]},{"primitives":[{"mode":4,"attributes":{"POSITION":4,"NORMAL":5,"TEXCOORD_0":6},"indices":7,"material":1}]},{"primitives":[{"mode":4,"attributes":{"POSITION":8,"NORMAL":9,"TEXCOORD_0":10},"indices":11,"material":2}]},{"primitives":[{"mode":4,"attributes":{"POSITION":12,"NORMAL":13,"TEXCOORD_0":14},"indices":15,"material":3}]},{"primitives":[{"mode":4,"attributes":{"POSITION":16,"NORMAL":17,"TEXCOORD_0":18},"indices":19,"material":4}]},{"primitives":[{"mode":4,"attributes":{"POSITION":20,"NORMAL":21,"TEXCOORD_0":22},"indices":23,"material":4}]},{"primitives":[{"mode":4,"attributes":{"POSITION":24,"NORMAL":25,"TEXCOORD_0":26},"indices":27,"material":5}]}]}